ply
format ascii 1.0
comment PCL generated
element vertex 701
property float x
property float y
property float z
element camera 1
property float view_px
property float view_py
property float view_pz
property float x_axisx
property float x_axisy
property float x_axisz
property float y_axisx
property float y_axisy
property float y_axisz
property float z_axisx
property float z_axisy
property float z_axisz
property float focal
property float scalex
property float scaley
property float centerx
property float centery
property int viewportx
property int viewporty
property float k1
property float k2
end_header
0.10906065 0.079080224 0.40900001
0.11635683 0.077956982 0.40815005
0.12285195 0.077213429 0.40778127
0.10832135 0.084066249 0.40900013
0.11476957 0.08497078 0.40659592
0.12443618 0.085135765 0.40664491
0.10959364 0.091871917 0.40900001
0.11536765 0.094679721 0.40770403
0.12502083 0.094686337 0.4076975
0.097183004 0.10765592 0.4086858
0.10534476 0.10633725 0.40812156
0.115196 0.10495917 0.40808055
0.12544972 0.10508241 0.40855595
0.13091312 0.10679556 0.40900001
0.088498555 0.11627709 0.40899995
0.095110029 0.11519746 0.40838245
0.10488068 0.11483373 0.40725926
0.11517419 0.11504143 0.40800053
0.12413586 0.11436004 0.40851876
0.08898481 0.12100854 0.40900001
0.09579248 0.12277287 0.40895855
0.10520465 0.12356737 0.40858373
0.11432373 0.12289988 0.40876102
0.12131935 0.12126233 0.40899998
0.086600885 0.068015985 0.41866672
0.095174015 0.06564568 0.41755286
0.10486741 0.064800046 0.41693458
0.11494941 0.064830422 0.41682985
0.12439895 0.066018283 0.41729227
0.13171268 0.068298489 0.41830778
0.085590288 0.074883692 0.41822851
0.094984815 0.075014934 0.4146601
0.10496074 0.074741252 0.41215205
0.11447534 0.073406175 0.41185293
0.1257216 0.073319703 0.41216663
0.13431637 0.075517654 0.41627878
0.14122589 0.079098739 0.41850004
0.0692643 0.08931461 0.41866669
0.076008752 0.086797908 0.41653222
0.085047692 0.084955178 0.41435346
0.0950609 0.084706992 0.41272819
0.10375109 0.085320964 0.4109365
0.12920099 0.081476055 0.41033337
0.13512111 0.084831804 0.41324678
0.14304157 0.085962214 0.41736847
0.066646919 0.096195579 0.41730189
0.074733272 0.095035329 0.41450015
0.085162371 0.094709538 0.41226959
0.095313922 0.094760507 0.41206113
0.10528151 0.095111355 0.4115631
0.1112355 0.097592101 0.41000006
0.13474435 0.095160551 0.41181159
0.14418186 0.095278852 0.41656068
0.059465401 0.10464854 0.41900012
0.065414473 0.10502669 0.41636974
0.07532943 0.1051774 0.41355661
0.085185461 0.1052215 0.4128451
0.094205886 0.10357068 0.41111273
0.10421589 0.10156252 0.41079414
0.13526039 0.10500526 0.41149276
0.14478745 0.10488514 0.41614085
0.059855413 0.11049873 0.41900003
0.065495364 0.11463065 0.41709217
0.074799158 0.11522907 0.41318393
0.084093355 0.11460041 0.41078937
0.090983339 0.11061861 0.41
0.12783886 0.11741374 0.41025001
0.13466552 0.11518617 0.41214496
0.14436322 0.11470406 0.41654691
0.067118578 0.12437242 0.41815549
0.074912071 0.12507819 0.41464385
0.084805965 0.1250487 0.41134512
0.094401859 0.1277111 0.41033331
0.10497499 0.12870856 0.4100416
0.1160684 0.12796649 0.41057149
0.12530129 0.12513205 0.41123432
0.13488945 0.12518725 0.41469574
0.14291961 0.12431568 0.41793942
0.06881012 0.13102904 0.41900006
0.075855263 0.13433276 0.41743326
0.084942549 0.13479756 0.41450647
0.095101044 0.13514692 0.41263521
0.10487616 0.13504563 0.41197291
0.11473288 0.13495374 0.41295448
0.12494416 0.13466695 0.41404301
0.13425581 0.13417391 0.41679594
0.14110295 0.13168426 0.41900006
0.079512082 0.14107578 0.41900003
0.085758328 0.1425952 0.41792497
0.094982035 0.14392847 0.41705564
0.10481552 0.14416096 0.41685197
0.11492694 0.14347996 0.41731253
0.1244931 0.1417958 0.41816667
0.13138384 0.14107578 0.41900003
0.096273892 0.048614994 0.42899993
0.10516187 0.047900975 0.42868745
0.11226931 0.048137058 0.42899993
0.12333849 0.049404234 0.42899999
0.077890486 0.058566697 0.42877775
0.085973546 0.057025723 0.42734623
0.094926618 0.055035032 0.42495748
0.10495831 0.054862343 0.42413163
0.11512794 0.055032395 0.42466685
0.12481164 0.05498575 0.42446509
0.13359612 0.056782108 0.42683333
0.076640636 0.065713577 0.4245626
0.084578134 0.063373879 0.42227536
0.092618227 0.061157998 0.42036369
0.12681901 0.061644945 0.42055559
0.13530461 0.064191125 0.42265072
0.1431507 0.066189684 0.42689744
0.069110647 0.072884336 0.42899999
0.07507816 0.074711934 0.42375824
0.081671335 0.076539911 0.42052945
0.13850325 0.072436951 0.42100003
0.14528017 0.074743144 0.4240455
0.15173438 0.076836787 0.4276875
0.067719832 0.087879166 0.42533335
0.073960103 0.082804866 0.42314637
0.080796488 0.080112435 0.42000002
0.14745115 0.083967403 0.42110723
0.15296938 0.085433938 0.42587882
0.048284143 0.098631345 0.42707148
0.055553176 0.097355649 0.4255926
0.063225053 0.093996413 0.42362005
0.14934047 0.093904264 0.42014289
0.15441999 0.095144778 0.42415097
0.019064065 0.10943813 0.42875001
0.02553305 0.10828255 0.42661545
0.031791888 0.10886607 0.42833337
0.04755887 0.10461434 0.42604885
0.054597903 0.10484943 0.42179754
0.1548617 0.10504446 0.42344645
0.16092998 0.10597446 0.42881814
0.017422505 0.11528867 0.42672002
0.025040768 0.11456546 0.42217088
0.033274587 0.1152479 0.42564711
0.049193818 0.11464103 0.42804763
0.055254519 0.11496274 0.42292684
0.060891002 0.11842943 0.42050004
0.1495401 0.11733031 0.42000002
0.15499283 0.11502842 0.42340001
0.16155685 0.11414301 0.42788887
0.017490247 0.12407862 0.42752779
0.025266012 0.12484218 0.42504171
0.033640619 0.12437017 0.42686665
0.049652383 0.12114648 0.42833337
0.054989357 0.12487616 0.42497465
0.062345158 0.12568057 0.42090487
0.14730062 0.12590307 0.42113048
0.1538903 0.12466303 0.42566672
0.027461419 0.13130505 0.42899996
0.031095246 0.13102552 0.42900002
0.056975175 0.13432397 0.42680436
0.064818799 0.13502026 0.42252183
0.072120301 0.13791625 0.42083335
0.1380244 0.13788852 0.4206
0.14519276 0.13512792 0.42302087
0.15180653 0.13518529 0.42799997
0.05904774 0.14108843 0.42900002
0.065632783 0.14452803 0.42659101
0.075016551 0.14496279 0.42347768
0.084377989 0.14755335 0.4213334
0.094269834 0.14887469 0.42038468
0.10499252 0.14923273 0.42044449
0.11543777 0.14862615 0.42068422
0.12527519 0.14674917 0.42148584
0.13496773 0.14518188 0.42363837
0.14447226 0.14371917 0.42717949
0.15073194 0.14108843 0.42900002
0.0670835 0.1518168 0.42869228
0.075130418 0.15241617 0.42775008
0.085209757 0.15426949 0.42587039
0.095266096 0.15508664 0.42473021
0.10512469 0.15513723 0.4244839
0.11490859 0.15516374 0.42511857
0.12521613 0.15490828 0.4267931
0.13371031 0.15360524 0.42819354
0.089236446 0.16009614 0.42900002
0.095604405 0.16216581 0.42877772
0.10482877 0.16251881 0.42813522
0.11437143 0.16232626 0.42803234
0.12110229 0.16009614 0.42900002
0.096465267 0.039114218 0.43900004
0.10597014 0.039080448 0.43742856
0.11415726 0.038929671 0.43695244
0.069577448 0.049411684 0.43900001
0.076064691 0.047865994 0.43651354
0.085467011 0.046229374 0.4343971
0.094785906 0.043880973 0.43345201
0.10460285 0.043096576 0.43246153
0.11579026 0.044410225 0.43206155
0.12486497 0.044885378 0.4338806
0.13363971 0.047041703 0.43581575
0.14051555 0.049411684 0.43900001
0.06546542 0.055517342 0.43567127
0.074572675 0.054562919 0.43248093
0.084153756 0.052800778 0.43083793
0.12978987 0.050640099 0.43000001
0.13655244 0.053006306 0.43221879
0.14347775 0.056290291 0.43559462
0.15081301 0.059709147 0.43900001
0.059576787 0.069115594 0.43700004
0.065089993 0.064597867 0.4333809
0.072471276 0.061993301 0.43161541
0.14730638 0.063573889 0.43206903
0.15465772 0.066007882 0.43625
0.16136952 0.068237655 0.43866667
0.055453788 0.075944901 0.43451506
0.064597972 0.074952386 0.43138015
0.070392445 0.078657754 0.42999998
0.15594804 0.074244484 0.43295458
0.16210429 0.074706428 0.43720689
0.055451047 0.084702522 0.43528947
0.064529248 0.084313177 0.4319717
0.070556149 0.082210623 0.43100002
0.15783353 0.084203616 0.43184215
0.16265775 0.08524967 0.43700007
0.038971089 0.099468805 0.43900001
0.04532605 0.096921258 0.43518189
0.054852922 0.093219966 0.43458328
0.061350901 0.091367215 0.43122223
0.15929782 0.092318691 0.43099999
0.1637952 0.095220491 0.43441471
0.017024852 0.10781526 0.43462962
0.024812417 0.10463862 0.43454894
0.035317168 0.10508553 0.43522224
0.042638879 0.10507224 0.43323404
0.16411544 0.10452262 0.43140742
-0.0028702195 0.11754766 0.43819362
0.0057172002 0.11661828 0.43659332
0.01265088 0.11405744 0.43220001
0.037785202 0.11403314 0.43150002
0.044066269 0.11532006 0.4326154
0.16391218 0.1104964 0.43033335
-0.013380834 0.1268784 0.43775606
-0.0050455807 0.12485306 0.43720001
0.0055384501 0.1249079 0.4360137
0.013033195 0.12570713 0.43163893
0.03811134 0.12636121 0.43120003
0.044835605 0.12493113 0.43274322
0.050258663 0.12806889 0.43033338
0.15823655 0.12850368 0.43116665
0.16079336 0.12743984 0.43200001
-0.014295518 0.13482258 0.4373031
-0.0046431837 0.13503779 0.43598872
0.0053420071 0.13490441 0.43556327
0.015057804 0.13514578 0.43366659
0.024282148 0.13608079 0.43317866
0.034998886 0.13531429 0.43388337
0.045200288 0.13502128 0.43566689
0.052414995 0.13595004 0.43203229
0.15685794 0.13549314 0.43233332
0.16169125 0.13598475 0.43593746
-0.01387899 0.14483544 0.43799993
-0.0047604996 0.14500438 0.43572235
0.0050468994 0.14475727 0.4352878
0.014694428 0.14525664 0.43618613
0.024610795 0.14513667 0.43715161
0.034713373 0.14308871 0.43810257
0.045247819 0.14275421 0.43818918
0.055265799 0.14494963 0.43496719
0.061427984 0.14743729 0.43066669
0.14676578 0.14823911 0.43068755
0.15455703 0.14314936 0.43196666
0.16152921 0.14095604 0.43550003
-0.012266634 0.15192768 0.43869239
-0.0044100983 0.15432027 0.43738455
0.0049060192 0.15440525 0.4366096
0.014045043 0.15421644 0.4379659
0.022806427 0.15176035 0.4387334
0.05778072 0.15190412 0.43790913
0.064421065 0.15506139 0.43325004
0.074726403 0.15741982 0.43137932
0.08328259 0.15902676 0.43042859
0.13778566 0.15573108 0.43129414
0.14353181 0.15296976 0.4323478
-0.0015894814 0.16062433 0.43900004
0.0044403216 0.16080756 0.43878579
0.01008098 0.16039549 0.43900001
0.067750588 0.1613701 0.43737501
0.075698785 0.16321073 0.43664524
0.085063659 0.1647554 0.43459645
0.092262506 0.16435483 0.43069234
0.11970352 0.16327107 0.43000001
0.12484895 0.16266604 0.43086669
0.076874971 0.039349075 0.44820005
0.086036362 0.037915073 0.4467839
0.095010027 0.035433739 0.4444921
0.10476559 0.034818951 0.44438896
0.11495794 0.035038363 0.44379079
0.12455353 0.037057858 0.44507697
0.1333023 0.038653657 0.44693753
0.067327723 0.04674717 0.4453077
0.074425034 0.043322388 0.44373596
0.084039845 0.041694548 0.44212499
0.090377785 0.040350087 0.44000003
0.12755424 0.040571779 0.44033337
0.1362662 0.042807814 0.44293553
0.14388435 0.046157721 0.44559458
0.058327924 0.056633305 0.44436005
0.062574387 0.051753964 0.44363162
0.14733583 0.053305611 0.44245461
0.15444534 0.056250971 0.44536731
0.058057655 0.0628049 0.44517648
0.1572289 0.061725717 0.44094738
0.160693 0.063881747 0.44100004
0.03956626 0.079792887 0.44900003
0.046645012 0.077995166 0.44567856
0.05334466 0.073150873 0.4434118
0.036262657 0.085785262 0.44699994
0.044744257 0.084757045 0.44272512
0.050750542 0.087622471 0.44000003
0.16675745 0.086989827 0.44072726
0.026325695 0.096765742 0.44709802
0.03467584 0.094948009 0.44389662
0.044051435 0.09266825 0.44131911
0.051059987 0.091954701 0.44000003
0.16778471 0.092528082 0.44000003
-0.0036630919 0.10875717 0.44672731
0.002781224 0.10926987 0.44785717
0.015669402 0.10525385 0.44518605
0.02439102 0.10146911 0.44221434
0.032261256 0.10076723 0.44057146
-0.013326698 0.11678743 0.44588634
-0.0057779388 0.11342914 0.44198388
0.0044735097 0.11190681 0.44370264
-0.031535171 0.12815572 0.44830003
-0.024385473 0.12634414 0.4449833
-0.01647188 0.12337345 0.44216001
-0.03162951 0.13438469 0.44781819
-0.025068108 0.13504441 0.44266173
-0.019399302 0.13574043 0.44000003
-0.030942636 0.14230344 0.4484286
-0.024969168 0.14493763 0.4438889
-0.019077452 0.14510718 0.44005558
0.02959902 0.14929317 0.44000003
0.036047351 0.14772741 0.44021416
0.044566322 0.14808185 0.44060001
0.051043872 0.14864175 0.44033337
-0.024499334 0.15447505 0.44604084
-0.015772285 0.15552084 0.44133338
-0.0082443627 0.15895878 0.44000003
0.017343951 0.15869954 0.44015387
0.025841853 0.15580137 0.44130775
0.035056263 0.1551816 0.44369647
0.044965897 0.15489551 0.44453713
0.054510441 0.15557514 0.44321281
0.061490685 0.15864739 0.44050005
-0.022619141 0.1618578 0.44833335
-0.014500837 0.16422138 0.44571105
-0.0049448861 0.165061 0.44251934
0.0051304745 0.16597818 0.44209522
0.014665859 0.1650475 0.44272411
0.024402091 0.16441657 0.44535419
0.033790793 0.1627858 0.44766673
0.044627193 0.16058871 0.44854546
0.054967411 0.16138048 0.44785714
0.065434597 0.16529451 0.4442941
0.074482396 0.16797316 0.44126078
0.08120364 0.16936162 0.44000003
-0.01075345 0.1710705 0.44900003
-0.0048924885 0.17127372 0.44800004
0.0053061228 0.17242879 0.44806665
0.014415815 0.17188358 0.44806668
0.020842649 0.1710705 0.44900003
0.06778542 0.17082296 0.44733334
0.074526288 0.171304 0.44436362
0.080813497 0.17032121 0.44100001
0.088307321 0.029504737 0.45728573
0.095214717 0.028817033 0.45572007
0.10487889 0.02853214 0.45488459
0.11459889 0.029081019 0.45642111
0.12212747 0.029266857 0.45800006
0.067267448 0.038338993 0.45623535
0.075285979 0.035994153 0.45389593
0.08445923 0.033438981 0.45336735
0.093735769 0.031258348 0.45064285
0.10528243 0.030864708 0.45033339
0.11474067 0.03141316 0.45117646
0.12559743 0.032346535 0.45386666
0.13501926 0.034791052 0.45465115
0.14221063 0.037796702 0.45416668
0.058694869 0.047515664 0.45750001
0.06362655 0.044089686 0.45298174
0.070734426 0.040094301 0.45000002
0.14609139 0.042608175 0.45111117
0.15248391 0.048005525 0.45230773
0.055900652 0.054912526 0.45526186
0.06076536 0.050649792 0.45000002
0.15537158 0.051924966 0.45090002
0.038471758 0.068204753 0.45862505
0.04505774 0.067747608 0.45883328
0.053061511 0.064965613 0.4564909
0.027285976 0.078586653 0.45775005
0.035628043 0.075882457 0.45513046
0.044646606 0.073990501 0.45470777
0.052522685 0.071830891 0.45418751
-0.0012379643 0.087737881 0.4585385
0.0053142523 0.08623337 0.45692301
0.015399266 0.085218437 0.45556769
0.024919413 0.084747538 0.45322791
0.032192048 0.083361611 0.45086205
-0.023528544 0.097655483 0.45696875
-0.015099426 0.097804658 0.45662498
-0.0043448233 0.096273527 0.45767277
0.0052493759 0.094904236 0.45580602
0.015134519 0.095029503 0.45348147
0.023222985 0.093261585 0.45056662
-0.031865712 0.10707536 0.4580909
-0.024818636 0.10519666 0.45620278
-0.014988699 0.10526558 0.45506147
-0.005017173 0.10420229 0.45391792
0.0051218066 0.1048069 0.45341894
0.012955865 0.10307307 0.45154282
-0.03429427 0.11536287 0.45603392
-0.02507887 0.11534178 0.45509753
-0.016211551 0.11315679 0.45239532
-0.041354831 0.12642667 0.45800006
-0.0351994 0.12454738 0.45253333
-0.026171666 0.12225607 0.45187506
-0.041132405 0.13279374 0.45825002
-0.036474742 0.13515103 0.45288631
-0.034506731 0.14526868 0.4534474
-0.03339709 0.15500416 0.45532426
-0.02903348 0.15622546 0.45036364
-0.0328371 0.1646753 0.45711112
-0.02586489 0.16569932 0.45234048
-0.01783813 0.16865002 0.45057148
0.028235434 0.16890657 0.45025003
0.035792649 0.1671527 0.45156002
0.045245375 0.16557747 0.45266664
0.054791857 0.16623974 0.45306256
0.061887685 0.16793066 0.45200005
-0.052490551 0.1760003 0.45512918
-0.045460667 0.17572649 0.45679688
-0.033962127 0.17610766 0.45854709
-0.024664061 0.17482661 0.45594737
-0.015192389 0.17493306 0.45357454
-0.0052176602 0.17635569 0.45261535
0.0049120625 0.17680344 0.45192
0.015565451 0.17640576 0.4522121
0.024972815 0.17451441 0.45411432
0.034150977 0.17264815 0.45642105
0.045428872 0.17167678 0.45795006
0.054990537 0.17297499 0.45808327
0.062335711 0.17226028 0.45478567
-0.053470463 0.18007506 0.45400006
-0.044587128 0.18050754 0.45563638
-0.034899794 0.18137227 0.45877784
-0.024668543 0.18084249 0.45743746
-0.015283967 0.18075453 0.45699993
-0.0049873111 0.18100055 0.45633337
0.0051120096 0.18047167 0.45499998
0.014022158 0.18064168 0.4554286
0.021262167 0.18046795 0.45800003
0.077486321 0.028852144 0.46740001
0.08525262 0.026651319 0.46557146
0.094945617 0.024783248 0.46521428
0.10471653 0.024801984 0.46463645
0.11519365 0.024836672 0.4642826
0.12471544 0.026147855 0.4630256
0.13233745 0.028494775 0.46300003
0.058989171 0.039300524 0.46850002
0.065236747 0.036281541 0.46469444
0.074208289 0.032065056 0.46379313
0.081642792 0.030474391 0.46059999
0.12925382 0.030195227 0.46000001
0.13378425 0.030766051 0.46085712
0.049778774 0.049016546 0.46800002
0.055637494 0.045289956 0.46450001
0.060643211 0.040603373 0.46250004
0.039368182 0.059930157 0.46750003
0.046051003 0.05620091 0.46497822
0.052234232 0.053646788 0.46170008
0.02910516 0.069901258 0.46900001
0.035281453 0.065466709 0.46423224
0.044488888 0.062951818 0.46076185
-0.0037281602 0.078824975 0.46779999
0.0056687822 0.078152701 0.46666664
0.015132967 0.077548139 0.46513957
0.024975492 0.075067908 0.46403506
0.031949714 0.071723603 0.46186668
-0.024251366 0.08787147 0.46791309
-0.014855199 0.086209625 0.46675915
-0.0056041167 0.084213622 0.46292958
0.0045395223 0.081345074 0.46192312
0.013139208 0.08077012 0.46028572
-0.04149048 0.097809285 0.46866667
-0.034168195 0.095919728 0.46584213
-0.025491916 0.093048759 0.46328843
-0.015526752 0.092895716 0.4630698
-0.0072571859 0.092537016 0.46115386
-0.091028333 0.10381792 0.46762502
-0.085127927 0.10539126 0.46736008
-0.075120263 0.10617804 0.46758479
-0.068726577 0.10791051 0.46854547
-0.050653286 0.10809974 0.46900001
-0.044086918 0.10539855 0.46693438
-0.03575404 0.10411835 0.46243393
-0.083463512 0.1151917 0.46791682
-0.07522434 0.11511945 0.46716648
-0.066812932 0.11490066 0.46808007
-0.050848555 0.11394121 0.4687857
-0.045091849 0.11497667 0.46554235
-0.039093431 0.11347212 0.46085715
-0.083369881 0.12432976 0.46734282
-0.075283617 0.12379207 0.46758693
-0.067849457 0.12336612 0.4683913
-0.050347693 0.12368473 0.46900004
-0.045734555 0.12456799 0.46470842
-0.045209415 0.13304371 0.46494448
-0.038675379 0.1492095 0.46100003
-0.041552916 0.15565799 0.46690911
-0.038023513 0.15515247 0.46164703
-0.053843327 0.16709946 0.46717143
-0.044595253 0.16576892 0.46524671
-0.037257262 0.16526148 0.46159256
-0.093098246 0.17441437 0.4672381
-0.084759749 0.17688002 0.46706247
-0.075295553 0.1758129 0.46582925
-0.067702137 0.17447744 0.46856245
-0.054491684 0.17018428 0.465
-0.043857813 0.1711468 0.46076193
-0.037565891 0.172677 0.46053579
0.028894208 0.17885011 0.46075004
0.036235563 0.17752366 0.46245003
0.044378106 0.17605346 0.46152171
0.054123063 0.17666022 0.46000001
-0.09228608 0.18252106 0.46475008
-0.085180528 0.18233831 0.46442428
-0.077527657 0.18192898 0.46293327
0.026546227 0.18159705 0.46222225
0.034185801 0.18248084 0.46650004
0.041849557 0.18176681 0.46800002
0.089759462 0.019953582 0.47300002
0.093968868 0.01993249 0.47250003
0.069675006 0.028945597 0.47900003
0.075277254 0.027001563 0.47286212
0.08432205 0.022983227 0.47055563
0.093991831 0.021414567 0.47063646
0.10472557 0.021709686 0.47100011
0.11283042 0.021369424 0.47025001
0.056049481 0.037520315 0.47599995
0.064420648 0.033333924 0.47403333
0.070815787 0.030851647 0.47000003
0.047850218 0.04651868 0.47581488
0.052238345 0.042883571 0.47329167
0.036678016 0.057833642 0.47596005
0.043008707 0.053444803 0.47410712
0.027012931 0.067116037 0.47528574
0.032769293 0.062421359 0.47255006
-0.012998564 0.078734815 0.4754706
-0.004499367 0.076458037 0.4742581
0.0054122014 0.074473575 0.47440538
0.015228589 0.073188491 0.47403038
0.023160303 0.071365096 0.47252947
-0.042822719 0.088513598 0.47757149
-0.034414392 0.086636491 0.47555327
-0.02553601 0.083773643 0.47408333
-0.016572956 0.081635095 0.47265223
-0.091099404 0.096819662 0.47463644
-0.084912747 0.096269757 0.47496882
-0.075043835 0.095506676 0.47543049
-0.065939851 0.096607968 0.4766888
-0.054258149 0.097063869 0.47605127
-0.045611728 0.094663806 0.47300002
-0.037215117 0.091695078 0.47140008
-0.091491148 0.10128674 0.47000003
-0.084579453 0.10124994 0.47040004
-0.073948875 0.10169178 0.47066674
-0.064529553 0.10446645 0.47224256
-0.05530715 0.1046434 0.4717727
-0.048015613 0.10192064 0.47010008
-0.06168117 0.11478627 0.47080004
-0.055909447 0.1151406 0.47094002
-0.081691481 0.12884828 0.47000003
-0.074620128 0.12862557 0.47000009
-0.063445263 0.12568796 0.47161359
-0.055543963 0.12527308 0.47267863
-0.08411938 0.13444845 0.47413945
-0.074990936 0.13491589 0.47407144
-0.065051198 0.13455909 0.47238588
-0.055289168 0.13452598 0.47405788
-0.048999071 0.1346028 0.47114286
-0.083411843 0.14067869 0.47900006
-0.075721227 0.14135294 0.47790003
-0.069561653 0.14012294 0.47500002
-0.057302136 0.14041792 0.47600001
-0.053402793 0.15861787 0.4761579
-0.046434943 0.15626684 0.47266671
-0.10008818 0.16542125 0.47300002
-0.094365098 0.16525374 0.47325763
-0.085167117 0.16534257 0.47541037
-0.075333722 0.16727686 0.47538909
-0.064252809 0.16594821 0.47324196
-0.055592485 0.16257618 0.47200003
-0.047765326 0.16167526 0.47107151
-0.09700346 0.17049687 0.47000003
-0.084135473 0.17141813 0.47141671
-0.075066753 0.17126004 0.47068429
-0.064804554 0.17160518 0.47000018
0.037129447 0.18519635 0.47000003
0.040191844 0.18397141 0.47000003
0.059022062 0.029549887 0.48900002
0.064521231 0.029126493 0.48725003
0.048693687 0.037369259 0.48140001
0.055128518 0.033058874 0.48390001
0.063057885 0.03125336 0.48300001
0.038168076 0.048925716 0.48316669
0.044287212 0.045158695 0.48225713
0.035501495 0.054063551 0.48186487
0.041492496 0.0507253 0.48033336
-0.00024114261 0.068421453 0.48900002
0.0051735677 0.069041513 0.4874737
0.016084146 0.069129623 0.48635292
0.023749081 0.064781465 0.48386487
-0.041024428 0.079254508 0.48900002
-0.034381296 0.077771232 0.48675764
-0.025301028 0.077659585 0.48550007
-0.014850348 0.076798491 0.48446426
-0.0043724342 0.072970465 0.48451522
0.0047870362 0.071368933 0.48242098
0.01461057 0.070939019 0.48158336
-0.08415056 0.087617755 0.48462495
-0.075249478 0.086878784 0.48433331
-0.066992253 0.088505141 0.48547059
-0.053117722 0.08808776 0.4866842
-0.04493181 0.084827453 0.48450986
-0.035937596 0.081996165 0.48211113
-0.02527402 0.080345683 0.48028573
-0.091366187 0.091897793 0.48085716
-0.085373968 0.09116292 0.48081252
-0.074672446 0.090306044 0.48000002
-0.063642554 0.092631266 0.48311117
-0.056057967 0.092638463 0.48325714
-0.049026519 0.090306044 0.48000002
-0.082411118 0.14443262 0.48074999
-0.076745391 0.14584298 0.48058331
-0.090898529 0.15936425 0.48650002
-0.084832042 0.15743434 0.48505884
-0.077813484 0.15517633 0.48595837
-0.062230233 0.15890469 0.48615387
-0.05637753 0.15793698 0.48344448
-0.091942735 0.16040197 0.48200002
-0.085826889 0.16052894 0.48133337
-0.0750186 0.16385478 0.48400003
-0.066369921 0.16297632 0.48372728
0.0582745 0.02869587 0.49075004
0.063528389 0.027710214 0.49155554
-0.042681452 0.037940565 0.49878576
-0.03527626 0.037987929 0.49863636
-0.028424451 0.03882445 0.49899998
-0.043649957 0.044939023 0.49787229
-0.034683917 0.044885691 0.49653226
-0.02563371 0.045643892 0.49745825
-0.016938392 0.048823874 0.49861544
-0.042828951 0.052883487 0.49810004
-0.034479305 0.053938407 0.49708501
-0.02477349 0.054943211 0.49784309
-0.015085001 0.055064134 0.49501568
-0.0049202852 0.055362877 0.49573776
0.0026251052 0.057297222 0.49815789
-0.022108577 0.063840583 0.49733341
-0.015016465 0.064885564 0.49533349
-0.0048801745 0.064878374 0.49206454
0.0052632787 0.064173169 0.49420837
0.014051506 0.066237479 0.49481815
0.020830248 0.064091578 0.49000001
-0.044080887 0.079143941 0.49057147
-0.03576082 0.07561671 0.49020004
-0.02346337 0.073820077 0.49283326
-0.015518508 0.072726198 0.49419048
-0.0073604253 0.071395114 0.49144447
-0.06177346 0.087681621 0.49100003
-0.054785065 0.084725857 0.49118176
-0.047536023 0.081494011 0.4904286
-0.073609911 0.15767102 0.49223819
-0.066190183 0.15780891 0.49270597
-0.055406976 0.1570195 0.49221429
-0.073529288 0.1624479 0.49209526
-0.068413146 0.16176574 0.49144447
-0.044045191 0.027907709 0.50411117
-0.034816395 0.027214866 0.50236666
-0.027633861 0.028286934 0.50337499
-0.051496208 0.035495915 0.50235713
-0.045781411 0.034116834 0.50159574
-0.03454531 0.033107314 0.50109547
-0.025519008 0.034994263 0.5021556
-0.017915538 0.039343085 0.50485718
-0.051886894 0.043646656 0.50159997
-0.049028706 0.045420021 0.50029415
-0.022421679 0.041984089 0.50049996
-0.014955277 0.044577073 0.50304008
-0.0068991017 0.047561992 0.50216001
-0.047594234 0.051499337 0.5
-0.0015497138 0.051064953 0.5
0.0055083856 0.055286888 0.50068182
0.010648656 0.058643997 0.50166672
0.0088754604 0.060186982 0.5
0.012797871 0.062203016 0.50049996
0 0 0 1 0 0 0 1 0 0 0 1 0 0 0 0 0 701 1 0 0
